#!OML:ASF E:\Steps\Project 1\Capture day 1\Session 2\Subject.ASF
:FULLY-SPECIFIED
:DEGREES
85
root 8.92428 16.2785 31.6594 -158.614 -3.29812 175.941
lowerback -25.1906 -2.49965 -9.07218
upperback -1.19868 -1.05023 -1.32992
thorax 12.9058 -1.20067 3.25987
lowerneck 0.132707 -2.40921 -2.48227
upperneck -15.9656 -3.58393 6.9931
head -4.61262 -2.48295 2.75208
rclavicle 8.69683e-015 5.56597e-015
rhumerus -30.4279 -15.9668 -82.4585
rradius 29.1646
rwrist -1.30774
rhand -7.77066 -54.9766
rfingers 7.12502
rthumb 18.1295 -84.1517
lclavicle 8.69683e-015 5.56597e-015
lhumerus -25.6163 3.28776 85.4636
lradius 22.989
lwrist -3.07668
lhand -17.0387 -11.2455
lfingers 7.12502
lthumb 9.19803 18.5339
rfemur -19.0357 5.82855 15.8381
rtibia 8.85728
rfoot -20.2914 -8.19891
rtoes -30.1743
lfemur -21.4606 -10.2763 -24.1698
ltibia 12.2412
lfoot -10.1592 0.153276
ltoes -37.9309
86
root 8.92271 16.2797 31.6579 -158.601 -3.32688 175.962
lowerback -25.1678 -2.48445 -9.02547
upperback -1.23327 -1.05137 -1.33535
thorax 12.8515 -1.19677 3.22775
lowerneck 0.131784 -2.39469 -2.49021
upperneck -15.925 -3.55973 6.99935
head -4.60089 -2.46825 2.75334
rclavicle 4.62174e-015 -3.69739e-014
rhumerus -30.4772 -15.915 -82.4979
rradius 29.2333
rwrist -1.26273
rhand -7.56968 -54.5939
rfingers 7.12502
rthumb 18.3229 -83.751
lclavicle 4.62174e-015 -3.69739e-014
lhumerus -25.583 2.90454 85.5836
lradius 22.9862
lwrist -2.88919
lhand -17.1508 -11.1318
lfingers 7.12502
lthumb 9.08986 18.6523
rfemur -19.0022 5.81721 15.8587
rtibia 8.78506
rfoot -20.2479 -8.20067
rtoes -29.8673
lfemur -21.4753 -10.3097 -24.128
ltibia 12.2418
lfoot -10.1438 0.0967437
ltoes -37.1953
87
root 8.92165 16.2804 31.6545 -158.604 -3.33826 175.962
lowerback -25.1626 -2.493 -9.02087
upperback -1.26858 -1.07238 -1.32128
thorax 12.8097 -1.20569 3.23443
lowerneck 0.17954 -2.3645 -2.54341
upperneck -15.8913 -3.51385 6.99592
head -4.59982 -2.43902 2.75949
rclavicle -1.19271e-015 2.10712e-014
rhumerus -30.5598 -15.7415 -82.5326
rradius 29.329
rwrist -1.29065
rhand -7.49212 -54.3903
rfingers 7.12502
rthumb 18.3975 -83.5403
lclavicle -1.19271e-015 2.10712e-014
lhumerus -25.5559 2.22488 85.8243
lradius 22.9588
lwrist -2.35555
lhand -17.3596 -11.0589
lfingers 7.12502
lthumb 8.88834 18.7339
rfemur -19.0233 5.85011 15.8589
rtibia 8.85459
rfoot -20.242 -8.29434
rtoes -29.7963
lfemur -21.4304 -10.3965 -24.1178
ltibia 12.1869
lfoot -10.1506 0.144882
ltoes -37.0467
88
root 8.92054 16.2814 31.6499 -158.59 -3.38581 175.949
lowerback -25.2222 -2.53218 -9.0367
upperback -1.26714 -1.1157 -1.2988
thorax 12.8504 -1.2288 3.25222
lowerneck 0.177501 -2.3354 -2.57763
upperneck -15.8919 -3.47531 6.99732
head -4.60084 -2.41818 2.7643
rclavicle -1.28216e-014 -2.5842e-014
rhumerus -30.5545 -15.5731 -82.5732
rradius 29.3905
rwrist -1.38161
rhand -7.45607 -54.5351
rfingers 7.12502
rthumb 18.4321 -83.6818
lclavicle -1.28216e-014 -2.5842e-014
lhumerus -25.537 1.76558 85.9981
lradius 23.1152
lwrist -1.90293
lhand -17.4743 -10.834
lfingers 7.12502
lthumb 8.77767 18.9635
rfemur -19.0209 5.8055 15.8634
rtibia 8.92155
rfoot -20.2917 -8.31692
rtoes -30.0716
lfemur -21.4016 -10.4417 -24.1192
ltibia 12.1677
lfoot -10.1528 0.0660615
ltoes -36.0558
89
root 8.91897 16.2822 31.6432 -158.601 -3.4854 175.964
lowerback -25.269 -2.55455 -9.00704
upperback -1.23668 -1.14331 -1.29148
thorax 12.9153 -1.24132 3.23219
lowerneck 0.0631792 -2.32318 -2.57864
upperneck -15.8087 -3.45929 6.9933
head -4.55701 -2.40665 2.75822
rclavicle 2.85256e-014 3.61788e-014
rhumerus -30.4837 -15.6331 -82.586
rradius 29.3772
rwrist -1.33
rhand -7.51453 -54.286
rfingers 7.12502
rthumb 18.3759 -83.438
lclavicle 2.85256e-014 3.61788e-014
lhumerus -25.6045 2.19209 85.8993
lradius 23.4416
lwrist -2.36756
lhand -17.2699 -10.8878
lfingers 7.12502
lthumb 8.97493 18.9013
rfemur -18.8732 5.88351 15.8987
rtibia 8.81452
rfoot -20.3595 -8.45068
rtoes -29.9696
lfemur -21.3616 -10.3706 -24.1077
ltibia 12.1916
lfoot -10.1668 -0.0971893
ltoes -35.8928
90
root 8.91979 16.2763 31.6679 -158.299 -2.70665 176.051
lowerback -25.2944 -2.26393 -8.9829
upperback -1.41149 -0.798 -1.3471
thorax 12.6757 -1.07916 3.28183
lowerneck -0.000359677 -2.32807 -2.57556
upperneck -15.7543 -3.46386 7.00579
head -4.5292 -2.40745 2.75902
rclavicle 6.26172e-015 -5.4467e-014
rhumerus -30.511 -15.5534 -82.6353
rradius 29.4868
rwrist -1.46343
rhand -7.82211 -53.646
rfingers 7.12502
rthumb 18.08 -82.8256
lclavicle 6.26172e-015 -5.4467e-014
lhumerus -25.3901 1.06035 86.1874
lradius 23.2176
lwrist -1.27359
lhand -17.3328 -11.2026
lfingers 7.12502
lthumb 8.91418 18.5891
rfemur -19.7085 6.47454 15.7253
rtibia 9.13802
rfoot -20.2173 -8.33523
rtoes -30.1259
lfemur -21.8471 -10.1071 -24.0387
ltibia 12.2539
lfoot -10.1997 0.516772
ltoes -37.0177
91
root 8.91873 16.2771 31.6661 -158.276 -2.74922 176.016
lowerback -25.2764 -2.2844 -9.00236
upperback -1.44881 -0.828486 -1.35311
thorax 12.6256 -1.09338 3.27576
lowerneck 0.0279714 -2.34104 -2.58051
upperneck -15.7549 -3.47515 7.05664
head -4.53225 -2.41579 2.77651
rclavicle 1.26228e-014 3.22031e-014
rhumerus -30.6061 -15.3802 -82.6916
rradius 29.6109
rwrist -1.66108
rhand -8.11756 -53.4243
rfingers 7.12502
rthumb 17.7957 -82.6301
lclavicle 1.26228e-014 3.22031e-014
lhumerus -25.4103 1.23027 86.147
lradius 23.2039
lwrist -1.42747
lhand -17.1766 -11.6403
lfingers 7.12502
lthumb 9.06497 18.1449
rfemur -19.8045 6.19253 15.7204
rtibia 9.28085
rfoot -20.248 -8.18267
rtoes -30.8018
lfemur -21.8236 -10.2768 -24.0602
ltibia 12.1726
lfoot -10.1797 0.63045
ltoes -37.2787
